<?xml version="1.0" encoding="UTF-8" standalone="no"?>
<!DOCTYPE svg PUBLIC "-//W3C//DTD SVG 1.1//EN"
 "http://www.w3.org/Graphics/SVG/1.1/DTD/svg11.dtd">
<!-- Generated by graphviz version 2.38.0 (20140413.2041)
 -->
<!-- Title: snakemake_dag Pages: 1 -->
<svg width="794pt" height="620pt"
 viewBox="0.00 0.00 794.00 620.00" xmlns="http://www.w3.org/2000/svg" xmlns:xlink="http://www.w3.org/1999/xlink">
<g id="graph0" class="graph" transform="scale(1 1) rotate(0) translate(4 616)">
<title>snakemake_dag</title>
<polygon fill="white" stroke="none" points="-4,4 -4,-616 790,-616 790,4 -4,4"/>
<!-- 0 -->
<g id="node1" class="node"><title>0</title>
<path fill="none" stroke="#5673d8" stroke-width="2" d="M382,-36C382,-36 310,-36 310,-36 304,-36 298,-30 298,-24 298,-24 298,-12 298,-12 298,-6 304,-0 310,-0 310,-0 382,-0 382,-0 388,-0 394,-6 394,-12 394,-12 394,-24 394,-24 394,-30 388,-36 382,-36"/>
<text text-anchor="middle" x="346" y="-15.5" font-family="sans" font-size="10.00">make_summary</text>
</g>
<!-- 1 -->
<g id="node2" class="node"><title>1</title>
<path fill="none" stroke="#9fd856" stroke-width="2" d="M84,-108C84,-108 12,-108 12,-108 6,-108 0,-102 0,-96 0,-96 0,-84 0,-84 0,-78 6,-72 12,-72 12,-72 84,-72 84,-72 90,-72 96,-78 96,-84 96,-84 96,-96 96,-96 96,-102 90,-108 84,-108"/>
<text text-anchor="middle" x="48" y="-87.5" font-family="sans" font-size="10.00">make_rulegraph</text>
</g>
<!-- 1&#45;&gt;0 -->
<g id="edge6" class="edge"><title>1&#45;&gt;0</title>
<path fill="none" stroke="grey" stroke-width="2" d="M96.0057,-75.5992C100.727,-74.353 105.451,-73.1337 110,-72 170.484,-56.9249 240.174,-41.5124 288.058,-31.2225"/>
<polygon fill="grey" stroke="grey" stroke-width="2" points="288.888,-34.624 297.933,-29.1064 287.422,-27.7793 288.888,-34.624"/>
</g>
<!-- 2 -->
<g id="node3" class="node"><title>2</title>
<path fill="none" stroke="#56d8c1" stroke-width="2" d="M222.5,-612C222.5,-612 109.5,-612 109.5,-612 103.5,-612 97.5,-606 97.5,-600 97.5,-600 97.5,-588 97.5,-588 97.5,-582 103.5,-576 109.5,-576 109.5,-576 222.5,-576 222.5,-576 228.5,-576 234.5,-582 234.5,-588 234.5,-588 234.5,-600 234.5,-600 234.5,-606 228.5,-612 222.5,-612"/>
<text text-anchor="middle" x="166" y="-591.5" font-family="sans" font-size="10.00">get_codon_variant_table</text>
</g>
<!-- 2&#45;&gt;0 -->
<g id="edge10" class="edge"><title>2&#45;&gt;0</title>
<path fill="none" stroke="grey" stroke-width="2" d="M157.501,-575.993C145.228,-549.822 124,-497.79 124,-451 124,-451 124,-451 124,-161 124,-114.733 141.606,-100.568 178,-72 209.639,-47.1638 253.11,-33.8581 287.905,-26.7905"/>
<polygon fill="grey" stroke="grey" stroke-width="2" points="288.77,-30.1887 297.936,-24.8748 287.457,-23.3129 288.77,-30.1887"/>
</g>
<!-- 3 -->
<g id="node4" class="node"><title>3</title>
<path fill="none" stroke="#56d8a2" stroke-width="2" d="M298.5,-468C298.5,-468 179.5,-468 179.5,-468 173.5,-468 167.5,-462 167.5,-456 167.5,-456 167.5,-444 167.5,-444 167.5,-438 173.5,-432 179.5,-432 179.5,-432 298.5,-432 298.5,-432 304.5,-432 310.5,-438 310.5,-444 310.5,-444 310.5,-456 310.5,-456 310.5,-462 304.5,-468 298.5,-468"/>
<text text-anchor="middle" x="239" y="-447.5" font-family="sans" font-size="10.00">aggregate_variant_counts</text>
</g>
<!-- 2&#45;&gt;3 -->
<g id="edge13" class="edge"><title>2&#45;&gt;3</title>
<path fill="none" stroke="grey" stroke-width="2" d="M166.736,-575.918C168.18,-557.215 172.444,-526.846 185,-504 190.921,-493.226 199.73,-483.247 208.523,-474.921"/>
<polygon fill="grey" stroke="grey" stroke-width="2" points="211.072,-477.336 216.174,-468.051 206.395,-472.128 211.072,-477.336"/>
</g>
<!-- 13 -->
<g id="node14" class="node"><title>13</title>
<path fill="none" stroke="#56d0d8" stroke-width="2" d="M271.5,-540C271.5,-540 206.5,-540 206.5,-540 200.5,-540 194.5,-534 194.5,-528 194.5,-528 194.5,-516 194.5,-516 194.5,-510 200.5,-504 206.5,-504 206.5,-504 271.5,-504 271.5,-504 277.5,-504 283.5,-510 283.5,-516 283.5,-516 283.5,-528 283.5,-528 283.5,-534 277.5,-540 271.5,-540"/>
<text text-anchor="middle" x="239" y="-519.5" font-family="sans" font-size="10.00">count_variants</text>
</g>
<!-- 2&#45;&gt;13 -->
<g id="edge29" class="edge"><title>2&#45;&gt;13</title>
<path fill="none" stroke="grey" stroke-width="2" d="M184.045,-575.697C193.062,-567.05 204.118,-556.449 213.943,-547.027"/>
<polygon fill="grey" stroke="grey" stroke-width="2" points="216.367,-549.552 221.163,-540.104 211.522,-544.499 216.367,-549.552"/>
</g>
<!-- 3&#45;&gt;0 -->
<g id="edge9" class="edge"><title>3&#45;&gt;0</title>
<path fill="none" stroke="grey" stroke-width="2" d="M222.292,-431.812C199.646,-406.622 162,-357.199 162,-307 162,-307 162,-307 162,-161 162,-96.2886 234.209,-56.9277 288.156,-36.551"/>
<polygon fill="grey" stroke="grey" stroke-width="2" points="289.462,-39.8003 297.656,-33.0846 287.062,-33.2244 289.462,-39.8003"/>
</g>
<!-- 4 -->
<g id="node5" class="node"><title>4</title>
<path fill="none" stroke="#5692d8" stroke-width="2" d="M297.5,-324C297.5,-324 202.5,-324 202.5,-324 196.5,-324 190.5,-318 190.5,-312 190.5,-312 190.5,-300 190.5,-300 190.5,-294 196.5,-288 202.5,-288 202.5,-288 297.5,-288 297.5,-288 303.5,-288 309.5,-294 309.5,-300 309.5,-300 309.5,-312 309.5,-312 309.5,-318 303.5,-324 297.5,-324"/>
<text text-anchor="middle" x="250" y="-303.5" font-family="sans" font-size="10.00">counts_to_cells_ratio</text>
</g>
<!-- 3&#45;&gt;4 -->
<g id="edge15" class="edge"><title>3&#45;&gt;4</title>
<path fill="none" stroke="grey" stroke-width="2" d="M240.327,-431.871C242.202,-407.67 245.646,-363.211 247.878,-334.393"/>
<polygon fill="grey" stroke="grey" stroke-width="2" points="251.386,-334.43 248.668,-324.189 244.406,-333.889 251.386,-334.43"/>
</g>
<!-- 5 -->
<g id="node6" class="node"><title>5</title>
<path fill="none" stroke="#bed856" stroke-width="2" d="M462.5,-396C462.5,-396 385.5,-396 385.5,-396 379.5,-396 373.5,-390 373.5,-384 373.5,-384 373.5,-372 373.5,-372 373.5,-366 379.5,-360 385.5,-360 385.5,-360 462.5,-360 462.5,-360 468.5,-360 474.5,-366 474.5,-372 474.5,-372 474.5,-384 474.5,-384 474.5,-390 468.5,-396 462.5,-396"/>
<text text-anchor="middle" x="424" y="-375.5" font-family="sans" font-size="10.00">counts_to_scores</text>
</g>
<!-- 3&#45;&gt;5 -->
<g id="edge18" class="edge"><title>3&#45;&gt;5</title>
<path fill="none" stroke="grey" stroke-width="2" d="M284.256,-431.876C309.996,-422.137 342.408,-409.872 369.536,-399.608"/>
<polygon fill="grey" stroke="grey" stroke-width="2" points="370.777,-402.881 378.891,-396.068 368.299,-396.334 370.777,-402.881"/>
</g>
<!-- 4&#45;&gt;0 -->
<g id="edge12" class="edge"><title>4&#45;&gt;0</title>
<path fill="none" stroke="grey" stroke-width="2" d="M246.577,-287.735C239.447,-246.98 226.885,-142.896 268,-72 275.204,-59.5778 286.628,-49.4462 298.534,-41.4938"/>
<polygon fill="grey" stroke="grey" stroke-width="2" points="300.589,-44.3375 307.236,-36.0867 296.895,-38.3919 300.589,-44.3375"/>
</g>
<!-- 5&#45;&gt;0 -->
<g id="edge5" class="edge"><title>5&#45;&gt;0</title>
<path fill="none" stroke="grey" stroke-width="2" d="M397.868,-359.887C385.623,-350.622 371.822,-338.174 363,-324 303.342,-228.15 315.48,-183.828 331,-72 332.183,-63.4752 334.388,-54.3938 336.751,-46.2008"/>
<polygon fill="grey" stroke="grey" stroke-width="2" points="340.168,-46.9939 339.762,-36.4069 333.478,-44.9366 340.168,-46.9939"/>
</g>
<!-- 6 -->
<g id="node7" class="node"><title>6</title>
<path fill="none" stroke="#d8b456" stroke-width="2" d="M487.5,-324C487.5,-324 384.5,-324 384.5,-324 378.5,-324 372.5,-318 372.5,-312 372.5,-312 372.5,-300 372.5,-300 372.5,-294 378.5,-288 384.5,-288 384.5,-288 487.5,-288 487.5,-288 493.5,-288 499.5,-294 499.5,-300 499.5,-300 499.5,-312 499.5,-312 499.5,-318 493.5,-324 487.5,-324"/>
<text text-anchor="middle" x="436" y="-303.5" font-family="sans" font-size="10.00">scores_to_frac_escape</text>
</g>
<!-- 5&#45;&gt;6 -->
<g id="edge20" class="edge"><title>5&#45;&gt;6</title>
<path fill="none" stroke="grey" stroke-width="2" d="M426.966,-359.697C428.289,-351.983 429.878,-342.712 431.352,-334.112"/>
<polygon fill="grey" stroke="grey" stroke-width="2" points="434.828,-334.552 433.068,-324.104 427.928,-333.369 434.828,-334.552"/>
</g>
<!-- 6&#45;&gt;0 -->
<g id="edge1" class="edge"><title>6&#45;&gt;0</title>
<path fill="none" stroke="grey" stroke-width="2" d="M407.63,-287.931C394.167,-278.677 378.72,-266.225 368,-252 347.237,-224.449 345.564,-213.868 339,-180 330.008,-133.607 335.929,-78.3464 340.998,-46.1155"/>
<polygon fill="grey" stroke="grey" stroke-width="2" points="344.474,-46.5528 342.662,-36.114 337.569,-45.4041 344.474,-46.5528"/>
</g>
<!-- 7 -->
<g id="node8" class="node"><title>7</title>
<path fill="none" stroke="#d89556" stroke-width="2" d="M630,-252C630,-252 516,-252 516,-252 510,-252 504,-246 504,-240 504,-240 504,-228 504,-228 504,-222 510,-216 516,-216 516,-216 630,-216 630,-216 636,-216 642,-222 642,-228 642,-228 642,-240 642,-240 642,-246 636,-252 630,-252"/>
<text text-anchor="middle" x="573" y="-231.5" font-family="sans" font-size="10.00">call_strong_escape_sites</text>
</g>
<!-- 6&#45;&gt;7 -->
<g id="edge21" class="edge"><title>6&#45;&gt;7</title>
<path fill="none" stroke="grey" stroke-width="2" d="M469.514,-287.876C487.841,-278.512 510.736,-266.814 530.328,-256.803"/>
<polygon fill="grey" stroke="grey" stroke-width="2" points="532.045,-259.857 539.357,-252.19 528.86,-253.623 532.045,-259.857"/>
</g>
<!-- 8 -->
<g id="node9" class="node"><title>8</title>
<path fill="none" stroke="#56b1d8" stroke-width="2" d="M642,-180C642,-180 574,-180 574,-180 568,-180 562,-174 562,-168 562,-168 562,-156 562,-156 562,-150 568,-144 574,-144 574,-144 642,-144 642,-144 648,-144 654,-150 654,-156 654,-156 654,-168 654,-168 654,-174 648,-180 642,-180"/>
<text text-anchor="middle" x="608" y="-159.5" font-family="sans" font-size="10.00">escape_profiles</text>
</g>
<!-- 6&#45;&gt;8 -->
<g id="edge23" class="edge"><title>6&#45;&gt;8</title>
<path fill="none" stroke="grey" stroke-width="2" d="M499.512,-297.973C555.985,-290.262 632.418,-275.718 651,-252 666.279,-232.497 650.648,-206.685 634.112,-187.883"/>
<polygon fill="grey" stroke="grey" stroke-width="2" points="636.428,-185.235 627.057,-180.293 631.301,-190.001 636.428,-185.235"/>
</g>
<!-- 9 -->
<g id="node10" class="node"><title>9</title>
<path fill="none" stroke="#d87556" stroke-width="2" d="M413.5,-180C413.5,-180 360.5,-180 360.5,-180 354.5,-180 348.5,-174 348.5,-168 348.5,-168 348.5,-156 348.5,-156 348.5,-150 354.5,-144 360.5,-144 360.5,-144 413.5,-144 413.5,-144 419.5,-144 425.5,-150 425.5,-156 425.5,-156 425.5,-168 425.5,-168 425.5,-174 419.5,-180 413.5,-180"/>
<text text-anchor="middle" x="387" y="-159.5" font-family="sans" font-size="10.00">output_pdbs</text>
</g>
<!-- 6&#45;&gt;9 -->
<g id="edge25" class="edge"><title>6&#45;&gt;9</title>
<path fill="none" stroke="grey" stroke-width="2" d="M408.2,-287.872C396.229,-278.837 383.505,-266.587 377,-252 368.278,-232.441 371.836,-208.165 376.985,-189.91"/>
<polygon fill="grey" stroke="grey" stroke-width="2" points="380.378,-190.787 380.03,-180.198 373.699,-188.693 380.378,-190.787"/>
</g>
<!-- 10 -->
<g id="node11" class="node"><title>10</title>
<path fill="none" stroke="#d8d356" stroke-width="2" d="M473.5,-252C473.5,-252 398.5,-252 398.5,-252 392.5,-252 386.5,-246 386.5,-240 386.5,-240 386.5,-228 386.5,-228 386.5,-222 392.5,-216 398.5,-216 398.5,-216 473.5,-216 473.5,-216 479.5,-216 485.5,-222 485.5,-228 485.5,-228 485.5,-240 485.5,-240 485.5,-246 479.5,-252 473.5,-252"/>
<text text-anchor="middle" x="436" y="-231.5" font-family="sans" font-size="10.00">homolog_escape</text>
</g>
<!-- 6&#45;&gt;10 -->
<g id="edge26" class="edge"><title>6&#45;&gt;10</title>
<path fill="none" stroke="grey" stroke-width="2" d="M436,-287.697C436,-279.983 436,-270.712 436,-262.112"/>
<polygon fill="grey" stroke="grey" stroke-width="2" points="439.5,-262.104 436,-252.104 432.5,-262.104 439.5,-262.104"/>
</g>
<!-- 11 -->
<g id="node12" class="node"><title>11</title>
<path fill="none" stroke="#88d856" stroke-width="2" d="M646,-108C646,-108 570,-108 570,-108 564,-108 558,-102 558,-96 558,-96 558,-84 558,-84 558,-78 564,-72 570,-72 570,-72 646,-72 646,-72 652,-72 658,-78 658,-84 658,-84 658,-96 658,-96 658,-102 652,-108 646,-108"/>
<text text-anchor="middle" x="608" y="-87.5" font-family="sans" font-size="10.00">make_supp_data</text>
</g>
<!-- 6&#45;&gt;11 -->
<g id="edge27" class="edge"><title>6&#45;&gt;11</title>
<path fill="none" stroke="grey" stroke-width="2" d="M499.553,-299.337C561.113,-292.379 648.136,-278.142 669,-252 679.16,-239.269 674.062,-167.283 663,-144 657.763,-132.976 649.182,-123.028 640.339,-114.807"/>
<polygon fill="grey" stroke="grey" stroke-width="2" points="642.416,-111.975 632.578,-108.044 637.817,-117.253 642.416,-111.975"/>
</g>
<!-- 7&#45;&gt;0 -->
<g id="edge2" class="edge"><title>7&#45;&gt;0</title>
<path fill="none" stroke="grey" stroke-width="2" d="M558.342,-215.52C532.169,-184.799 474.972,-119.846 420,-72 407.797,-61.379 393.52,-50.7768 380.779,-41.877"/>
<polygon fill="grey" stroke="grey" stroke-width="2" points="382.471,-38.7925 372.248,-36.0082 378.503,-44.5596 382.471,-38.7925"/>
</g>
<!-- 7&#45;&gt;8 -->
<g id="edge24" class="edge"><title>7&#45;&gt;8</title>
<path fill="none" stroke="grey" stroke-width="2" d="M581.652,-215.697C585.636,-207.728 590.45,-198.1 594.868,-189.264"/>
<polygon fill="grey" stroke="grey" stroke-width="2" points="598.106,-190.614 599.448,-180.104 591.845,-187.483 598.106,-190.614"/>
</g>
<!-- 8&#45;&gt;0 -->
<g id="edge11" class="edge"><title>8&#45;&gt;0</title>
<path fill="none" stroke="grey" stroke-width="2" d="M588.523,-143.654C560.239,-118.516 510.643,-74.6504 506,-72 474.354,-53.9371 435.638,-40.9065 404.217,-32.2863"/>
<polygon fill="grey" stroke="grey" stroke-width="2" points="404.854,-28.834 394.29,-29.6417 403.052,-35.5981 404.854,-28.834"/>
</g>
<!-- 8&#45;&gt;11 -->
<g id="edge28" class="edge"><title>8&#45;&gt;11</title>
<path fill="none" stroke="grey" stroke-width="2" d="M608,-143.697C608,-135.983 608,-126.712 608,-118.112"/>
<polygon fill="grey" stroke="grey" stroke-width="2" points="611.5,-118.104 608,-108.104 604.5,-118.104 611.5,-118.104"/>
</g>
<!-- 9&#45;&gt;0 -->
<g id="edge3" class="edge"><title>9&#45;&gt;0</title>
<path fill="none" stroke="grey" stroke-width="2" d="M382.054,-143.871C375.036,-119.564 362.117,-74.8187 353.8,-46.0132"/>
<polygon fill="grey" stroke="grey" stroke-width="2" points="357.1,-44.8259 350.963,-36.1893 350.375,-46.7677 357.1,-44.8259"/>
</g>
<!-- 10&#45;&gt;0 -->
<g id="edge4" class="edge"><title>10&#45;&gt;0</title>
<path fill="none" stroke="grey" stroke-width="2" d="M438.518,-215.771C440.533,-197.468 441.875,-167.93 434,-144 421.105,-104.817 391.429,-67.135 370.103,-43.5755"/>
<polygon fill="grey" stroke="grey" stroke-width="2" points="372.587,-41.1077 363.227,-36.1455 367.45,-45.8622 372.587,-41.1077"/>
</g>
<!-- 11&#45;&gt;0 -->
<g id="edge7" class="edge"><title>11&#45;&gt;0</title>
<path fill="none" stroke="grey" stroke-width="2" d="M557.794,-75.5861C513.912,-63.8619 450.186,-46.836 404.109,-34.5254"/>
<polygon fill="grey" stroke="grey" stroke-width="2" points="404.831,-31.0955 394.266,-31.8956 403.024,-37.8583 404.831,-31.0955"/>
</g>
<!-- 12 -->
<g id="node13" class="node"><title>12</title>
<path fill="none" stroke="#68d856" stroke-width="2" d="M774,-108C774,-108 688,-108 688,-108 682,-108 676,-102 676,-96 676,-96 676,-84 676,-84 676,-78 682,-72 688,-72 688,-72 774,-72 774,-72 780,-72 786,-78 786,-84 786,-84 786,-96 786,-96 786,-102 780,-108 774,-108"/>
<text text-anchor="middle" x="731" y="-87.5" font-family="sans" font-size="10.00">structural_contacts</text>
</g>
<!-- 12&#45;&gt;0 -->
<g id="edge8" class="edge"><title>12&#45;&gt;0</title>
<path fill="none" stroke="grey" stroke-width="2" d="M675.923,-74.0109C672.911,-73.3036 669.922,-72.6279 667,-72 575.791,-52.4038 468.657,-36.0324 404.113,-26.8815"/>
<polygon fill="grey" stroke="grey" stroke-width="2" points="404.519,-23.4042 394.129,-25.4754 403.543,-30.3358 404.519,-23.4042"/>
</g>
<!-- 13&#45;&gt;3 -->
<g id="edge14" class="edge"><title>13&#45;&gt;3</title>
<path fill="none" stroke="grey" stroke-width="2" d="M239,-503.697C239,-495.983 239,-486.712 239,-478.112"/>
<polygon fill="grey" stroke="grey" stroke-width="2" points="242.5,-478.104 239,-468.104 235.5,-478.104 242.5,-478.104"/>
</g>
<!-- 14 -->
<g id="node15" class="node"><title>14</title>
<path fill="none" stroke="#56d863" stroke-width="2" d="M734,-468C734,-468 648,-468 648,-468 642,-468 636,-462 636,-456 636,-456 636,-444 636,-444 636,-438 642,-432 648,-432 648,-432 734,-432 734,-432 740,-432 746,-438 746,-444 746,-444 746,-456 746,-456 746,-462 740,-468 734,-468"/>
<text text-anchor="middle" x="691" y="-447.5" font-family="sans" font-size="10.00">get_mut_bind_expr</text>
</g>
<!-- 14&#45;&gt;5 -->
<g id="edge16" class="edge"><title>14&#45;&gt;5</title>
<path fill="none" stroke="grey" stroke-width="2" d="M635.677,-434.496C591.563,-422.93 529.864,-406.755 484.455,-394.85"/>
<polygon fill="grey" stroke="grey" stroke-width="2" points="485.297,-391.452 474.736,-392.302 483.521,-398.223 485.297,-391.452"/>
</g>
<!-- 14&#45;&gt;8 -->
<g id="edge22" class="edge"><title>14&#45;&gt;8</title>
<path fill="none" stroke="grey" stroke-width="2" d="M693.522,-431.716C698.566,-391.357 706.429,-288.816 669,-216 663.188,-204.692 653.846,-194.749 644.202,-186.62"/>
<polygon fill="grey" stroke="grey" stroke-width="2" points="646.12,-183.675 636.101,-180.23 641.785,-189.171 646.12,-183.675"/>
</g>
<!-- 15 -->
<g id="node16" class="node"><title>15</title>
<path fill="none" stroke="#d85656" stroke-width="2" d="M430.5,-468C430.5,-468 355.5,-468 355.5,-468 349.5,-468 343.5,-462 343.5,-456 343.5,-456 343.5,-444 343.5,-444 343.5,-438 349.5,-432 355.5,-432 355.5,-432 430.5,-432 430.5,-432 436.5,-432 442.5,-438 442.5,-444 442.5,-444 442.5,-456 442.5,-456 442.5,-462 436.5,-468 430.5,-468"/>
<text text-anchor="middle" x="393" y="-447.5" font-family="sans" font-size="10.00">get_variant_expr</text>
</g>
<!-- 15&#45;&gt;5 -->
<g id="edge17" class="edge"><title>15&#45;&gt;5</title>
<path fill="none" stroke="grey" stroke-width="2" d="M400.663,-431.697C404.192,-423.728 408.456,-414.1 412.369,-405.264"/>
<polygon fill="grey" stroke="grey" stroke-width="2" points="415.576,-406.665 416.425,-396.104 409.176,-403.831 415.576,-406.665"/>
</g>
<!-- 16 -->
<g id="node17" class="node"><title>16</title>
<path fill="none" stroke="#56d882" stroke-width="2" d="M547,-468C547,-468 473,-468 473,-468 467,-468 461,-462 461,-456 461,-456 461,-444 461,-444 461,-438 467,-432 473,-432 473,-432 547,-432 547,-432 553,-432 559,-438 559,-444 559,-444 559,-456 559,-456 559,-462 553,-468 547,-468"/>
<text text-anchor="middle" x="510" y="-447.5" font-family="sans" font-size="10.00">get_variant_bind</text>
</g>
<!-- 16&#45;&gt;5 -->
<g id="edge19" class="edge"><title>16&#45;&gt;5</title>
<path fill="none" stroke="grey" stroke-width="2" d="M488.742,-431.697C477.911,-422.881 464.582,-412.032 452.84,-402.474"/>
<polygon fill="grey" stroke="grey" stroke-width="2" points="454.979,-399.703 445.014,-396.104 450.56,-405.132 454.979,-399.703"/>
</g>
</g>
</svg>
